{
	"asset": {
		"generator": "Blocks",
		"version": "105",
		"copyright": "Unknown"
	},
	"buffers": {
		"model": {
			"byteLength": 86556,
			"type": "arraybuffer",
			"uri": "model.bin"
		}
	},
	"accessors": {
		"accessor_position_m0-PolyPaper9_-66748": {
			"bufferView": "vec3BufferView",
			"byteOffset": 0,
			"byteStride": 12,
			"componentType": 5126,
			"count": 2016,
			"max": [ 0.3463857, 1.609628, 0.83387 ],
			"min": [ 0.2187895, 1.486205, 0.714084 ],
			"type": "VEC3"
		 },
		"accessor_normal_m0-PolyPaper9_-66748": {
			"bufferView": "vec3BufferView",
			"byteOffset": 24192,
			"byteStride": 12,
			"componentType": 5126,
			"count": 2016,
			"max": [ 0.9999933, 0.9998955, 0.9980743 ],
			"min": [ -0.9810925, -0.9958149, -0.9990172 ],
			"type": "VEC3"
		 },
		"accessor_color_m0-PolyPaper9_-66748": {
			"bufferView": "vec4BufferView",
			"byteOffset": 0,
			"byteStride": 16,
			"componentType": 5126,
			"count": 2016,
			"max": [ 0.5450981, 0.7647059, 0.2901961, 1 ],
			"min": [ 0.1019608, 0.1019608, 0.1019608, 1 ],
			"type": "VEC4"
		 },
		"accessor_indices_0_m0-PolyPaper9_-66748": {
			"bufferView": "ushortBufferView",
			"byteOffset": 0,
			"byteStride": 0,
			"componentType": 5123,
			"count": 2958,
			"max": [ 2015 ],
			"min": [ 0 ],
			"type": "SCALAR"
		 }
	},
	"bufferViews": {
		"ushortBufferView": {
			"buffer": "model",
			"byteLength": 5916,
			"byteOffset": 0,
			"target": 34963
		},
		"vec3BufferView": {
			"buffer": "model",
			"byteLength": 48384,
			"byteOffset": 5916,
			"target": 34962
		},
		"vec4BufferView": {
			"buffer": "model",
			"byteLength": 32256,
			"byteOffset": 54300,
			"target": 34962
		}
	},
	"meshes": {
		"mesh_m0-PolyPaper9_-66748": {
			"name": "mesh_m0-PolyPaper9_-66748",
			"primitives": [
				{
					"attributes": {
						"POSITION": "accessor_position_m0-PolyPaper9_-66748",
						"NORMAL": "accessor_normal_m0-PolyPaper9_-66748",
						"COLOR": "accessor_color_m0-PolyPaper9_-66748"
					},
					"indices": "accessor_indices_0_m0-PolyPaper9_-66748",
					"material": "material_mat9",
					"mode": 4
				}
			]
		}
	},
	"shaders": {
		"vertex_mat9": {
			"type": 35633,
			"uri": "https://vr.google.com/shaders/w/vs.glsl"
		},
		"fragment_mat9": {
			"type": 35632,
			"uri": "https://vr.google.com/shaders/w/fs.glsl"
		}
	},
	"programs": {
		"program_mat9": {
			"attributes": [
				"a_position",
				"a_normal",
				"a_color"				
			],
			"vertexShader": "vertex_mat9",
			"fragmentShader": "fragment_mat9"
		}
	},
	"techniques": {
		"technique_mat9": {
			"program": "program_mat9",
			"extras": {"gvrss" : "https://vr.google.com/shaders/w/gvrss/paper.json"},
			"parameters": {
				"position": {
					"type": 35665,
					"semantic": "POSITION"
				},
				"normal": {
					"type": 35665,
					"semantic": "NORMAL"
				},
				"color": {
					"type": 35666,
					"semantic": "COLOR"
				},
				"modelViewMatrix": {
					"type": 35676,
					"semantic": "MODELVIEW"
				},
				"projectionMatrix": {
					"type": 35676,
					"semantic": "PROJECTION"
				},
				"normalMatrix": {
					"type": 35675,
					"semantic": "MODELVIEWINVERSETRANSPOSE"
				},
				"color": {
					"type": 35666
				},
				"roughness": {
					"type": 5126
				},
				"metallic": {
					"type": 5126
				},
				"light0Pos": {
					"type": 35666
				},
				"light0Color": {
					"type": 35666
				},
				"light1Pos": {
					"type": 35666
				},
				"light1Color": {
					"type": 35666
				}				
			},
			"attributes": {
				"a_position": "position",
				"a_normal": "normal",
				"a_color": "color"				
			},
			"uniforms": {
				"u_modelViewMatrix": "modelViewMatrix",
				"u_projectionMatrix": "projectionMatrix",
				"u_normalMatrix": "normalMatrix",
				"u_color": "color",
				"u_roughness": "roughness",
				"u_metallic": "metallic",
				"u_light0Pos": "light0Pos",
				"u_light0Color": "light0Color",
				"u_light1Pos": "light1Pos",
				"u_light1Color": "light1Color"				
			},
			"states": {
				"enable": [
					2929,
					2884
				],
				"functions": {
					"cullFace": [1029]
				}
			}
		}
	},
	"materials": {
		"material_mat9": {
			"technique": "technique_mat9",
			"values": {
				"color": [0.5450981, 0.7647059, 0.2901961, 1],
				"roughness": 0.72,
				"metallic": 0,
				"light0Pos": [-0.02, 4.11, -0.54, 0],
				"light0Color": [0.8, 0.8, 0.8, 0],
				"light1Pos": [0.02, -4.11, 0.54, 0],
				"light1Color": [0.64, 0.5647059, 0.5647059, 0]				
			},
			"name": "material_mat9"
		}
	},
	"nodes": {
		"node_MeshObject1030809024-PolyPaper9": {
			"name": "node_MeshObject1030809024-PolyPaper9",
			"meshes": [
				"mesh_m0-PolyPaper9_-66748"
			],
			"matrix": [1, 0, 0, 0, 0, 1, 0, 0, 0, 0, 1, 0, 0, 0, 0, 1]
		}
	},
	"scene": "defaultScene",
	"scenes": {
		"defaultScene": {
			"nodes": [
				"node_MeshObject1030809024-PolyPaper9"
			],
			"extras": {

			}
		}
	}
}